<?xml version="1.0" standalone="no"?>
<!DOCTYPE svg PUBLIC "-//W3C//DTD SVG 20010904//EN"
 "http://www.w3.org/TR/2001/REC-SVG-20010904/DTD/svg10.dtd">
<svg version="1.0" xmlns="http://www.w3.org/2000/svg"
 width="512.000000pt" height="512.000000pt" viewBox="0 0 512.000000 512.000000"
 preserveAspectRatio="xMidYMid meet">
<metadata>
Created by potrace 1.11, written by Peter Selinger 2001-2013
</metadata>
<g transform="translate(0.000000,512.000000) scale(0.100000,-0.100000)"
fill="#000000" stroke="none">
<path d="M0 2560 l0 -2560 2560 0 2560 0 0 2560 0 2560 -2560 0 -2560 0 0
-2560z m1042 648 l3 -1513 27 -98 c59 -213 162 -335 331 -389 77 -25 254 -30
337 -9 186 47 301 171 356 387 l24 97 0 1519 0 1519 838 -4 c820 -3 839 -4
934 -25 389 -88 671 -285 861 -600 196 -325 264 -776 177 -1187 -89 -424 -362
-753 -755 -908 -220 -87 -374 -107 -824 -107 l-338 0 -7 -61 c-3 -34 -6 -358
-6 -720 l0 -659 -440 0 c-256 0 -440 4 -440 9 0 5 -39 -2 -87 -15 -266 -73
-645 -71 -921 7 -257 72 -498 238 -659 455 -110 149 -206 367 -248 564 -44
201 -44 235 -45 1778 l0 1472 440 0 440 0 2 -1512z"/>
<path d="M3010 3305 l0 -617 338 4 c308 4 342 6 399 25 86 29 141 63 197 122
82 89 123 202 133 371 19 339 -111 596 -345 682 -53 20 -81 22 -389 26 l-333
4 0 -617z"/>
</g>
</svg>
